{
  "source": "C:\\Users\\Peter\\Desktop\\stuff\\MIUN\\quantitative_research\\video_compression\\videos\\BVI-HD\\BVI-HD_CDVL_videos\\ORIG\\Music_1920x1080_30fps.mp4",
  "output": "C:\\Users\\Peter\\Desktop\\stuff\\MIUN\\quantitative_research\\video_compression\\compressed_videos\\BVI-HD\\vp9\\3\\Music_1920x1080_30fps_vp9.webm",
  "codec": "vp9",
  "ok": "Input #0, mov,mp4,m4a,3gp,3g2,mj2, from 'C:\\Users\\Peter\\Desktop\\stuff\\MIUN\\quantitative_research\\video_compression\\videos\\BVI-HD\\BVI-HD_CDVL_videos\\ORIG\\Music_1920x1080_30fps.mp4':\n  Metadata:\n    major_brand     : isom\n    minor_version   : 512\n    compatible_brands: isomiso2avc1mp41\n    encoder         : Lavf54.28.101\n  Duration: 00:00:05.00, start: 0.000000, bitrate: 192710 kb/s\n  Stream #0:0[0x1](und): Video: h264 (High 4:4:4 Predictive) (avc1 / 0x31637661), yuv420p(progressive), 1920x1080, 192707 kb/s, 30 fps, 30 tbr, 30 tbn (default)\n    Metadata:\n      handler_name    : VideoHandler\n      vendor_id       : [0][0][0][0]\n[out#0/webm @ 000001d97f77dac0] Codec AVOption b:a (set bitrate (in bits/s)) has not been used for any stream. The most likely reason is either wrong type (e.g. a video option with no video streams) or that it is a private option of some decoder which was not actually used for any stream.\nStream mapping:\n  Stream #0:0 -> #0:0 (h264 (native) -> vp9 (libvpx-vp9))\nPress [q] to stop, [?] for help\n[libvpx-vp9 @ 000001d97f7f07c0] v1.15.2-100-g40561f514\nOutput #0, webm, to 'C:\\Users\\Peter\\Desktop\\stuff\\MIUN\\quantitative_research\\video_compression\\compressed_videos\\BVI-HD\\vp9\\3\\Music_1920x1080_30fps_vp9.webm':\n  Metadata:\n    major_brand     : isom\n    minor_version   : 512\n    compatible_brands: isomiso2avc1mp41\n    encoder         : Lavf62.3.100\n  Stream #0:0(und): Video: vp9, yuv420p(tv, progressive), 1920x1080, q=2-31, 3000 kb/s, 30 fps, 1k tbn (default)\n    Metadata:\n      encoder         : Lavc62.11.100 libvpx-vp9\n      handler_name    : VideoHandler\n      vendor_id       : [0][0][0][0]\n    Side data:\n      cpb: bitrate max/min/avg: 0/0/0 buffer size: 3000000 vbv_delay: N/A\nframe=    0 fps=0.0 q=0.0 size=       0KiB time=N/A bitrate=N/A speed=N/A elapsed=0:00:00.51    \nframe=    9 fps=8.7 q=37.0 size=       1KiB time=00:00:00.30 bitrate=  16.9kbits/s speed=0.289x elapsed=0:00:01.03    \nframe=   15 fps=9.6 q=37.0 size=       1KiB time=00:00:00.50 bitrate=  10.1kbits/s speed=0.32x elapsed=0:00:01.56    \nframe=   22 fps= 11 q=35.0 size=       1KiB time=00:00:00.70 bitrate=   7.2kbits/s speed=0.336x elapsed=0:00:02.08    \nframe=   29 fps= 11 q=39.0 size=       1KiB time=00:00:00.93 bitrate=   5.4kbits/s speed=0.354x elapsed=0:00:02.64    \nframe=   34 fps= 11 q=38.0 size=       1KiB time=00:00:01.13 bitrate=   4.5kbits/s speed=0.356x elapsed=0:00:03.18    \nframe=   40 fps= 11 q=45.0 size=       1KiB time=00:00:01.33 bitrate=   3.8kbits/s speed=0.36x elapsed=0:00:03.70    \nframe=   45 fps= 11 q=41.0 size=       1KiB time=00:00:01.50 bitrate=   3.4kbits/s speed=0.354x elapsed=0:00:04.24    \nframe=   50 fps= 11 q=42.0 size=       1KiB time=00:00:01.66 bitrate=   3.0kbits/s speed=0.35x elapsed=0:00:04.76    \nframe=   56 fps= 11 q=41.0 size=       1KiB time=00:00:01.86 bitrate=   2.7kbits/s speed=0.352x elapsed=0:00:05.30    \nframe=   60 fps= 10 q=43.0 size=       1KiB time=00:00:02.00 bitrate=   2.5kbits/s speed=0.342x elapsed=0:00:05.85    \nframe=   66 fps= 10 q=41.0 size=       1KiB time=00:00:02.20 bitrate=   2.3kbits/s speed=0.345x elapsed=0:00:06.36    \nframe=   70 fps= 10 q=42.0 size=       1KiB time=00:00:02.33 bitrate=   2.2kbits/s speed=0.339x elapsed=0:00:06.88    \nframe=   76 fps= 10 q=40.0 size=       1KiB time=00:00:02.53 bitrate=   2.0kbits/s speed=0.342x elapsed=0:00:07.40    \nframe=   81 fps= 10 q=24.0 size=       1KiB time=00:00:02.70 bitrate=   1.9kbits/s speed=0.341x elapsed=0:00:07.92    \nframe=   86 fps= 10 q=40.0 size=       1KiB time=00:00:02.86 bitrate=   1.8kbits/s speed=0.339x elapsed=0:00:08.44    \nframe=   91 fps= 10 q=24.0 size=       1KiB time=00:00:03.03 bitrate=   1.7kbits/s speed=0.338x elapsed=0:00:08.96    \nframe=   97 fps= 10 q=41.0 size=       1KiB time=00:00:03.23 bitrate=   1.6kbits/s speed=0.34x elapsed=0:00:09.50    \nframe=  102 fps= 10 q=41.0 size=       1KiB time=00:00:03.40 bitrate=   1.5kbits/s speed=0.338x elapsed=0:00:10.05    \nframe=  107 fps= 10 q=42.0 size=       1KiB time=00:00:03.56 bitrate=   1.4kbits/s speed=0.337x elapsed=0:00:10.59    \nframe=  112 fps= 10 q=42.0 size=       1KiB time=00:00:03.73 bitrate=   1.4kbits/s speed=0.336x elapsed=0:00:11.12    \nframe=  118 fps= 10 q=41.0 size=       1KiB time=00:00:03.93 bitrate=   1.3kbits/s speed=0.338x elapsed=0:00:11.63    \nframe=  123 fps= 10 q=41.0 size=       1KiB time=00:00:04.10 bitrate=   1.2kbits/s speed=0.338x elapsed=0:00:12.14    \nframe=  126 fps=9.9 q=41.0 size=       1KiB time=00:00:04.20 bitrate=   1.2kbits/s speed=0.331x elapsed=0:00:12.67    \nframe=  126 fps=9.5 q=41.0 size=       1KiB time=00:00:04.20 bitrate=   1.2kbits/s speed=0.318x elapsed=0:00:13.22    \nframe=  126 fps=9.2 q=41.0 size=       1KiB time=00:00:04.20 bitrate=   1.2kbits/s speed=0.306x elapsed=0:00:13.74    \nframe=  126 fps=8.8 q=41.0 size=       1KiB time=00:00:04.20 bitrate=   1.2kbits/s speed=0.295x elapsed=0:00:14.25    \n[out#0/webm @ 000001d97f77dac0] video:1459KiB audio:0KiB subtitle:0KiB other streams:0KiB global headers:0KiB muxing overhead: 0.117855%\nframe=  150 fps= 10 q=34.0 Lsize=    1461KiB time=00:00:05.00 bitrate=2393.6kbits/s speed=0.343x elapsed=0:00:14.55    \n",
  "seconds": 14.779746770858765,
  "probe_out": {}
}